<?xml version="1.0" encoding="iso-8859-1"?>
<!-- Generator: Adobe Illustrator 18.0.0, SVG Export Plug-In . SVG Version: 6.00 Build 0)  -->
<!DOCTYPE svg PUBLIC "-//W3C//DTD SVG 1.1//EN" "http://www.w3.org/Graphics/SVG/1.1/DTD/svg11.dtd">
<svg xmlns="http://www.w3.org/2000/svg" xmlns:xlink="http://www.w3.org/1999/xlink" version="1.1" id="Capa_1" x="0px" y="0px" viewBox="0 0 297 297" style="enable-background:new 0 0 297 297;" xml:space="preserve" width="512px" height="512px">
<g>
	<path d="M143.724,80.463h9.313c3.143,0,5.691-2.549,5.691-5.691s-2.549-5.691-5.691-5.691h-9.313c-3.143,0-5.691,2.549-5.691,5.691   S140.581,80.463,143.724,80.463z" fill="#FFFFFF"/>
	<path d="M208.141,80.463h9.313c3.143,0,5.691-2.549,5.691-5.691s-2.549-5.691-5.691-5.691h-9.313c-3.143,0-5.691,2.549-5.691,5.691   S204.998,80.463,208.141,80.463z" fill="#FFFFFF"/>
	<path d="M228.271,165.32h-95.363c-0.662,0-1.317,0.031-1.975,0.05l-89.12-89.12c-4.042-4.04-10.593-4.04-14.635,0L3.031,100.397   c-4.041,4.041-4.041,10.594,0,14.635l76.185,76.185c-9.398,11.757-15.037,26.644-15.037,42.831v47.682   c0,5.715,4.633,10.348,10.348,10.348h212.124c5.715,0,10.348-4.633,10.348-10.348v-47.682   C297,196.151,266.168,165.32,228.271,165.32z M94.411,177.143l-9.797-9.797l12.683-6.341l9.488,9.488   C102.419,172.293,98.273,174.522,94.411,177.143z M57.958,140.689v-19.025l14.553,14.553l-12.683,6.341L57.958,140.689z    M67.54,150.271l12.683-6.341l9.362,9.362l-12.683,6.341L67.54,150.271z M47.609,111.316v19.025l-6.726-6.726V104.59   L47.609,111.316z M30.535,102.163v11.104l-5.552-5.552L30.535,102.163z M276.304,271.382H84.876v-37.334   c0-26.485,21.547-48.032,48.033-48.032h95.363c26.486,0,48.033,21.547,48.033,48.032V271.382z" fill="#FFFFFF"/>
	<path d="M102.568,73.834c-0.396,3.192-0.624,6.436-0.624,9.733c0,43.365,35.28,78.645,78.645,78.645s78.645-35.28,78.645-78.645   s-35.28-78.645-78.645-78.645c-22.792,0-43.341,9.755-57.718,25.298c-1.036-1.69-2.203-3.409-3.554-5.121   C111.406,15.073,96.267,3.695,69.048,6.402c-4.09,0.407-7.353,3.594-7.857,7.672c-0.121,0.983-2.813,24.271,11.449,42.108   C79.856,65.208,89.904,71.119,102.568,73.834z M233.404,59.767c3.288,7.267,5.134,15.32,5.134,23.801   c0,2.276-0.146,4.518-0.403,6.726H123.043c-0.257-2.209-0.403-4.45-0.403-6.726c0-8.481,1.846-16.534,5.134-23.801H233.404z    M180.589,141.517c-22.039,0-41.24-12.369-51.036-30.527h102.071C221.829,129.148,202.628,141.517,180.589,141.517z    M217.664,39.071h-74.149c10.055-8.392,22.984-13.452,37.075-13.452C194.68,25.618,207.608,30.678,217.664,39.071z M111.304,46.396   c-1.782,3.307-3.336,6.754-4.636,10.322c-8.768-1.824-15.552-5.649-20.208-11.421c-5.618-6.963-7.347-15.625-7.808-21.673   C100.816,24.355,108.685,38.766,111.304,46.396z" fill="#FFFFFF"/>
</g>
<g>
</g>
<g>
</g>
<g>
</g>
<g>
</g>
<g>
</g>
<g>
</g>
<g>
</g>
<g>
</g>
<g>
</g>
<g>
</g>
<g>
</g>
<g>
</g>
<g>
</g>
<g>
</g>
<g>
</g>
</svg>
